<?xml version="1.0" encoding="UTF-8"?>
<svg id="Layer_1" data-name="Layer 1" xmlns="http://www.w3.org/2000/svg" viewBox="0 0 78.26 12.01">
  <defs>
    <style>
      .cls-1 {
        fill: #424040;
        stroke-width: 0px;
      }
    </style>
  </defs>
  <g>
    <path class="cls-1" d="M2.67,8.41v3.45h-.73V3.8h4.01c.61,0,1.14.05,1.58.14s.8.24,1.08.43.48.43.61.72.19.63.19,1.01c0,.6-.16,1.08-.47,1.44s-.83.61-1.53.74l2.75,3.55h-.92l-2.6-3.47c-.11,0-.22.01-.33.02s-.23,0-.35,0h-3.28ZM8.65,6.12c0-.34-.06-.62-.18-.83s-.32-.38-.59-.5-.63-.2-1.08-.24c-.44-.04-.99-.06-1.63-.06h-2.5v3.23h2.47c.65,0,1.19-.02,1.64-.06s.81-.11,1.08-.23.48-.28.6-.49.18-.49.18-.83Z"/>
    <path class="cls-1" d="M12.37,11.85V3.8h6.71v.69h-5.91v2.77h5.61v.67h-5.61v3.24h6v.69h-6.8Z"/>
    <path class="cls-1" d="M21.87,11.85V3.8h.73v8.05h-.73Z"/>
    <path class="cls-1" d="M33.48,11.85l-7-7.09v7.09h-.73V3.8h.81l7,7.11V3.8h.72v8.05h-.8Z"/>
    <path class="cls-1" d="M45.39,9.63c0,.31-.04.58-.12.81s-.2.43-.34.59-.32.3-.53.4-.43.19-.68.25-.51.1-.79.13-.57.04-.87.04h-4.65V3.8h4.54c.23,0,.46,0,.69.03s.45.06.67.11.41.13.59.22.34.22.47.37.24.34.32.55.11.47.11.76c0,.26-.03.49-.1.68s-.16.36-.29.49-.3.25-.5.34-.44.16-.71.21c.39.03.72.09,1,.2s.5.25.68.42.3.39.39.63.12.52.12.82ZM44.12,5.86c0-.11,0-.23-.02-.34s-.05-.22-.11-.32-.13-.2-.24-.29c-.1-.09-.25-.17-.42-.23-.18-.06-.4-.11-.67-.15-.26-.04-.58-.06-.95-.06h-3.57v2.8h3.57c.53,0,.95-.04,1.27-.11s.56-.18.73-.31c.17-.13.28-.28.33-.45.05-.17.08-.35.08-.54ZM44.63,9.62c0-.3-.05-.56-.16-.78-.11-.21-.27-.39-.49-.53-.22-.14-.5-.24-.84-.3-.34-.06-.75-.1-1.22-.1h-3.77v3.27h3.87c.49,0,.9-.03,1.23-.08.33-.06.6-.15.81-.27.21-.13.35-.29.44-.49s.13-.44.13-.72Z"/>
    <path class="cls-1" d="M55.7,10.42c-.17.33-.42.61-.76.85s-.76.42-1.27.55-1.1.19-1.78.19-1.27-.06-1.78-.19-.93-.31-1.27-.55-.59-.52-.76-.85-.25-.7-.25-1.1V3.8h.73v5.58c0,.27.07.52.21.76s.35.45.64.63.63.32,1.04.43.89.16,1.44.16,1.02-.05,1.44-.16.76-.25,1.04-.43.49-.39.64-.63.21-.5.21-.76V3.8h.73v5.52c0,.4-.08.77-.25,1.1Z"/>
    <path class="cls-1" d="M59.02,11.85V3.8h.73v8.05h-.73Z"/>
    <path class="cls-1" d="M62.9,11.85V3.8h.73v7.37h5.88v.69h-6.62Z"/>
    <path class="cls-1" d="M73.48,4.47v7.38h-.73v-7.38h-3.66v-.67h8.05v.67h-3.66Z"/>
  </g>
  <g>
    <line class="cls-1" x1="0" y1=".35" x2="78.26" y2=".35"/>
    <rect class="cls-1" width="78.26" height=".7"/>
  </g>
</svg>